<?xml version="1.0" encoding="utf-8" ?>
<svg xmlns="http://www.w3.org/2000/svg" xmlns:xlink="http://www.w3.org/1999/xlink" width="44" height="44">
	<defs>
		<clipPath id="clip_0">
			<path d="M44 22C44 34.1503 34.1503 44 22 44C9.84974 44 0 34.1503 0 22C0 9.84974 9.84974 0 22 0C34.1503 0 44 9.84974 44 22Z" clip-rule="evenodd"/>
		</clipPath>
		<linearGradient id="grad1" x1="0%" y1="100%" x2="0%" y2="0%">
			<stop offset="0%" style="stop-color:rgb(72, 156, 230);stop-opacity:1" />
			<stop offset="100%" style="stop-color:rgb(245, 12, 72);stop-opacity:1" />
		</linearGradient>
	</defs>
	<g clip-path="url(#clip_0)">
		<path fill="none" stroke="rgb(72, 156, 230)" stroke-width="4" stroke-linecap="round" stroke-linejoin="round" d="M22 44C34.1503 44 44 34.1503 44 22C44 9.84974 34.1503 0 22 0C9.84974 0 0 9.84974 0 22C0 34.1503 9.84974 44 22 44Z"/>
	</g>
	<defs>
		<clipPath id="clip_1">
			<rect x="-160" y="-160" width="664" height="584" clip-rule="evenodd"/>
		</clipPath>
	</defs>
	<g clip-path="url(#clip_1)">
		<path fill="rgb(72, 156, 230)" stroke="none" transform="translate(11 14)" d="M4.62829 6.55125C3.22873 5.65357 2.38986 5.11366 2.11155 4.93192C1.60419 4.61377 1.12532 4.17623 0.675219 3.61944C0.225123 3.06264 0 2.54546 0 2.06817C0 1.47734 0.169822 0.984849 0.509466 0.590826Q1.01893 0 1.96418 0L20.0357 0C20.5674 0 21.0279 0.177973 21.4167 0.534059C21.8055 0.890144 22 1.3182 22 1.81823C22 2.41672 21.7996 2.98872 21.3983 3.53394C20.9972 4.07943 20.4981 4.54543 19.9007 4.93164C16.8234 6.90901 14.908 8.14004 14.1552 8.62486C14.0734 8.678 13.8993 8.79335 13.6334 8.97146C13.3674 9.14957 13.1465 9.29365 12.9705 9.40342C12.7945 9.51319 12.5817 9.63621 12.3322 9.77262C12.0827 9.90875 11.8472 10.0113 11.6262 10.0792C11.4052 10.1475 11.2006 10.1814 11.0124 10.1814L10.9876 10.1814C10.7994 10.1814 10.5948 10.1475 10.3738 10.0792C10.1528 10.0113 9.91748 9.90889 9.66779 9.77262C9.41811 9.63635 9.20534 9.51319 9.02934 9.40342C8.85349 9.29365 8.63244 9.14957 8.36648 8.97146C8.10052 8.79349 7.92663 8.678 7.84481 8.62486C7.09997 8.14017 6.02785 7.44893 4.62829 6.55125ZM14.6586 10.0682C16.0498 9.13632 18.0879 7.82942 20.7722 6.14774C21.2389 5.85233 21.648 5.5226 22 5.15913L22 14.1816C22 14.6818 21.8079 15.1096 21.423 15.4658C21.0383 15.822 20.5759 16 20.0358 16L1.96433 16C1.42412 16 0.961671 15.822 0.576973 15.4658C0.192274 15.1097 0 14.6818 0 14.1816L0 5.15913C0.360137 5.53028 0.773466 5.86 1.23999 6.14774C4.20275 8.0113 6.23655 9.3182 7.34152 10.0682C7.80804 10.3863 8.18656 10.6346 8.47708 10.8124C8.7676 10.9905 9.15441 11.1723 9.63721 11.3579C10.12 11.5436 10.5702 11.6363 10.9876 11.6363L11.0125 11.6363C11.4299 11.6363 11.88 11.5436 12.3628 11.3579C12.8457 11.1723 13.2324 10.9905 13.5229 10.8124C13.8136 10.6346 14.1921 10.3863 14.6586 10.0682Z" fill-rule="evenodd"/>
	</g>

</svg>