<?xml version="1.0" encoding="utf-8" ?>
<svg xmlns="http://www.w3.org/2000/svg" xmlns:xlink="http://www.w3.org/1999/xlink" width="44" height="44">
	<defs>
		<clipPath id="clip_0">
			<path d="M44 22C44 34.1503 34.1503 44 22 44C9.84974 44 0 34.1503 0 22C0 9.84974 9.84974 0 22 0C34.1503 0 44 9.84974 44 22Z" clip-rule="evenodd"/>
		</clipPath>
		<linearGradient id="grad1" x1="0%" y1="100%" x2="0%" y2="0%">
			<stop offset="0%" style="stop-color:rgb(72, 156, 230);stop-opacity:1" />
			<stop offset="100%" style="stop-color:rgb(245, 12, 72);stop-opacity:1" />
		</linearGradient>
	</defs>
	<g clip-path="url(#clip_0)">
		<path fill="none" stroke="rgb(72, 156, 230)" stroke-width="4" stroke-linecap="round" stroke-linejoin="round" d="M22 44C34.1503 44 44 34.1503 44 22C44 9.84974 34.1503 0 22 0C9.84974 0 0 9.84974 0 22C0 34.1503 9.84974 44 22 44Z"/>
	</g>
	<defs>
		<clipPath id="clip_1">
			<rect x="-520" y="-340" width="664" height="584" clip-rule="evenodd"/>
		</clipPath>
	</defs>
	<g clip-path="url(#clip_1)">
		<path fill="rgb(72, 156, 230)" stroke="none" transform="translate(9 10)" d="M12.9994 0C20.1674 0 26 4.73257 26 10.5491C26 12.8774 25.0973 14.9747 23.2121 17.0396L23.2132 17.0396C20.4865 20.1793 14.3875 24.0033 12.9994 24.5875C11.6525 25.1553 11.807 24.2703 11.8685 23.9177C11.8703 23.9071 11.8721 23.897 11.8737 23.8875C11.9069 23.6911 12.0583 22.7738 12.0583 22.7738C12.1021 22.4417 12.1474 21.927 12.0169 21.5989C11.8714 21.2381 11.295 21.0487 10.872 20.9582C4.62487 20.132 0 15.7634 0 10.5491C0 4.73257 5.83158 0 12.9994 0ZM7.91059 14.01L5.32807 14.01C4.95153 14.01 4.64582 13.7045 4.64582 13.3275L4.64582 8.16224C4.64582 7.78676 4.95153 7.48063 5.32807 7.48063C5.70356 7.48063 6.00927 7.78676 6.00927 8.16224L6.00927 12.6463L7.91059 12.6463C8.28755 12.6463 8.59179 12.9524 8.59179 13.3275C8.59179 13.7045 8.28755 14.01 7.91059 14.01ZM9.90118 14.01C10.2767 14.01 10.5826 13.7045 10.5826 13.3275L10.5826 8.16224C10.5826 7.78676 10.2767 7.48063 9.90118 7.48063C9.52548 7.48063 9.21956 7.78676 9.21956 8.16224L9.21956 13.3275C9.21956 13.7045 9.52548 14.01 9.90118 14.01ZM16.8001 13.3275C16.8001 13.6225 16.6139 13.8824 16.3343 13.9748C16.2641 13.9984 16.191 14.01 16.1171 14.01C15.9052 14.01 15.7013 13.9083 15.5731 13.7369L12.9258 10.1327L12.9258 13.3275C12.9258 13.7045 12.6205 14.01 12.244 14.01C11.8689 14.01 11.5628 13.7045 11.5628 13.3275L11.5628 8.16224C11.5628 7.86869 11.7497 7.60886 12.028 7.51562C12.0984 7.49236 12.1717 7.48063 12.2446 7.48063C12.4571 7.48063 12.661 7.58246 12.7898 7.75365L15.4367 11.3591L15.4367 8.16224C15.4367 7.78676 15.7434 7.48063 16.1183 7.48063C16.4951 7.48063 16.8001 7.78676 16.8001 8.16224L16.8001 13.3275ZM20.9797 10.0638C21.3561 10.0638 21.6614 10.3695 21.6614 10.7456C21.6614 11.1211 21.3561 11.4268 20.9797 11.4268L19.0784 11.4268L19.0784 12.6463L20.9797 12.6463C21.3556 12.6463 21.6614 12.9524 21.6614 13.3275C21.6614 13.7045 21.3556 14.01 20.9797 14.01L18.3966 14.01C18.0215 14.01 17.7154 13.7045 17.7154 13.3275L17.7154 8.16224C17.7154 7.78676 18.0205 7.48063 18.3966 7.48063L20.9797 7.48063C21.3561 7.48063 21.6614 7.78676 21.6614 8.16224C21.6614 8.53836 21.3561 8.84449 20.9797 8.84449L19.0784 8.84449L19.0784 10.0638L20.9797 10.0638Z" fill-rule="evenodd"/>
	</g>

</svg>