<?xml version="1.0" encoding="utf-8" ?>
<svg xmlns="http://www.w3.org/2000/svg" xmlns:xlink="http://www.w3.org/1999/xlink" width="44" height="44">
	<defs>
		<clipPath id="clip_0">
			<path d="M44 22C44 34.1503 34.1503 44 22 44C9.84974 44 0 34.1503 0 22C0 9.84974 9.84974 0 22 0C34.1503 0 44 9.84974 44 22Z" clip-rule="evenodd"/>
		</clipPath>
		<linearGradient id="grad1" x1="0%" y1="100%" x2="0%" y2="0%">
			<stop offset="0%" style="stop-color:rgb(233, 190, 53);stop-opacity:1" />
			<stop offset="100%" style="stop-color:rgb(245, 12, 72);stop-opacity:1" />
		</linearGradient>
	</defs>
	<g clip-path="url(#clip_0)">
		<path fill="none" stroke="rgb(233, 190, 53)" stroke-width="4" stroke-linecap="round" stroke-linejoin="round" d="M22 44C34.1503 44 44 34.1503 44 22C44 9.84974 34.1503 0 22 0C9.84974 0 0 9.84974 0 22C0 34.1503 9.84974 44 22 44Z"/>
	</g>
	<defs>
		<clipPath id="clip_1">
			<rect x="-400" y="-40" width="664" height="584" clip-rule="evenodd"/>
		</clipPath>
	</defs>
	<g clip-path="url(#clip_1)">
		<path fill="rgb(233, 190, 53)" stroke="none" transform="translate(12 12)" d="M2.35419 4.71379L2.32596 4.71379C0.914864 4.71379 0 3.67525 0 2.3601C0 1.01806 0.94191 0 2.38123 0C3.81938 0 4.70367 1.01549 4.73189 2.35626C4.73189 3.6714 3.81938 4.71379 2.35419 4.71379ZM15.5797 20L20 20L20 12.4446C20 8.23793 17.8234 6.28249 15.0529 6.28249C12.8198 6.28249 11.4205 7.61301 11.1618 8.54527L11.1618 6.41311L6.78269 6.41311C6.83913 7.54514 6.78269 20 6.78269 20L11.1618 20L11.1618 12.6482C11.1618 12.5992 11.1616 12.5503 11.1613 12.5015C11.1595 12.1424 11.1577 11.795 11.2571 11.538C11.5581 10.7197 12.2048 9.87322 13.3678 9.87322C14.8883 9.87322 15.5797 11.1282 15.5797 12.9684L15.5797 20ZM0.504469 6.41311L4.40263 6.41311L4.40263 19.9987L0.504469 19.9987L0.504469 6.41311Z" fill-rule="evenodd"/>
	</g>

</svg>