<?xml version="1.0" encoding="utf-8" ?>
<svg xmlns="http://www.w3.org/2000/svg" xmlns:xlink="http://www.w3.org/1999/xlink" width="44" height="44">
	<defs>
		<clipPath id="clip_0">
			<path d="M44 22C44 34.1503 34.1503 44 22 44C9.84974 44 0 34.1503 0 22C0 9.84974 9.84974 0 22 0C34.1503 0 44 9.84974 44 22Z" clip-rule="evenodd"/>
		</clipPath>
		<linearGradient id="grad1" x1="0%" y1="100%" x2="0%" y2="0%">
			<stop offset="0%" style="stop-color:rgb(233, 190, 53);stop-opacity:1" />
			<stop offset="100%" style="stop-color:rgb(245, 12, 72);stop-opacity:1" />
		</linearGradient>
	</defs>
	<g clip-path="url(#clip_0)">
		<path fill="none" stroke="rgb(233, 190, 53)" stroke-width="4" stroke-linecap="round" stroke-linejoin="round" d="M22 44C34.1503 44 44 34.1503 44 22C44 9.84974 34.1503 0 22 0C9.84974 0 0 9.84974 0 22C0 34.1503 9.84974 44 22 44Z"/>
	</g>
	<defs>
		<clipPath id="clip_1">
			<rect x="-400" y="-400" width="664" height="584" clip-rule="evenodd"/>
		</clipPath>
	</defs>
	<g clip-path="url(#clip_1)">
		<path fill="rgb(233, 190, 53)" stroke="none" transform="translate(7.75 6.75)" d="M23.7263 6.13863C21.4574 4.31285 17.8682 4.00336 17.7145 3.99222C17.4763 3.97218 17.2492 4.10578 17.1512 4.32621C17.1423 4.33957 17.0644 4.51992 16.9775 4.80047C18.4782 5.05429 20.3218 5.56418 21.9895 6.59953C22.2567 6.76429 22.3391 7.11609 22.1743 7.38328C22.0652 7.55918 21.8804 7.65492 21.689 7.65492C21.5865 7.65492 21.4819 7.62597 21.3884 7.56808C18.5206 5.78906 14.9402 5.7 14.25 5.7C13.5598 5.7 9.97723 5.78906 7.11164 7.56808C6.84446 7.73507 6.49266 7.65269 6.32789 7.3855C6.1609 7.11609 6.24328 6.76652 6.51047 6.59953C8.17817 5.5664 10.0218 5.05429 11.5225 4.80269C11.4356 4.51992 11.3577 4.34179 11.351 4.32621C11.2508 4.10578 11.0259 3.96773 10.7855 3.99222C10.6318 4.00336 7.04262 4.31285 4.74258 6.16312C3.54246 7.27418 1.14 13.7668 1.14 19.38C1.14 19.4802 1.16672 19.5759 1.2157 19.6628C2.87227 22.5751 7.39442 23.3366 8.42531 23.37L8.44313 23.37C8.62571 23.37 8.79715 23.2832 8.90403 23.1362L9.94606 21.7023C7.13391 20.9764 5.69777 19.7429 5.61539 19.6694C5.37938 19.4624 5.35711 19.1017 5.56641 18.8657C5.77348 18.6296 6.13418 18.6074 6.3702 18.8144C6.40359 18.8456 9.04875 21.09 14.25 21.09C19.4602 21.09 22.1053 18.8367 22.132 18.8144C22.3681 18.6096 22.7265 18.6296 22.9358 18.8679C23.1429 19.1039 23.1206 19.4624 22.8846 19.6694C22.8022 19.7429 21.3661 20.9764 18.554 21.7023L19.596 23.1362C19.7029 23.2832 19.8743 23.37 20.0569 23.37L20.0747 23.37C21.1056 23.3366 25.6277 22.5751 27.2843 19.6628C27.3333 19.5759 27.36 19.4802 27.36 19.38C27.36 13.7668 24.9575 7.27418 23.7263 6.13863ZM10.545 17.1C9.44285 17.1 8.54999 16.0802 8.54999 14.82C8.54999 13.5598 9.44285 12.54 10.545 12.54C11.6471 12.54 12.54 13.5598 12.54 14.82C12.54 16.0802 11.6471 17.1 10.545 17.1ZM15.96 14.82C15.96 16.0802 16.8528 17.1 17.955 17.1C19.0571 17.1 19.95 16.0802 19.95 14.82C19.95 13.5598 19.0571 12.54 17.955 12.54C16.8528 12.54 15.96 13.5598 15.96 14.82Z" fill-rule="evenodd"/>
	</g>

</svg>