<?xml version="1.0" standalone="no"?>
<!DOCTYPE svg PUBLIC "-//W3C//DTD SVG 20010904//EN"
 "http://www.w3.org/TR/2001/REC-SVG-20010904/DTD/svg10.dtd">
<svg version="1.0" xmlns="http://www.w3.org/2000/svg"
 width="1024.000000pt" height="1024.000000pt" viewBox="0 0 1024.000000 1024.000000"
 preserveAspectRatio="xMidYMid meet">
<metadata>
Created by potrace 1.11, written by Peter Selinger 2001-2013
</metadata>
<g transform="translate(0.000000,1024.000000) scale(0.100000,-0.100000)"
fill="#000000" stroke="none">
<path d="M0 5120 l0 -5120 5120 0 5120 0 0 5120 0 5120 -5120 0 -5120 0 0
-5120z m7245 2625 c146 -17 321 -48 407 -72 96 -26 92 -6 79 -360 -6 -169 -12
-362 -14 -428 -4 -157 -27 -207 -90 -191 -29 7 -47 44 -47 95 0 21 -9 73 -20
117 -68 267 -264 454 -555 530 -88 23 -120 27 -265 27 -182 1 -262 -12 -403
-64 -160 -58 -313 -179 -374 -297 -56 -105 -68 -156 -68 -282 1 -196 49 -306
199 -456 113 -113 266 -215 596 -399 598 -334 873 -576 1041 -920 99 -204 136
-392 125 -650 -6 -164 -26 -269 -75 -403 -81 -223 -248 -433 -482 -607 -264
-196 -526 -270 -1004 -282 -435 -11 -812 38 -1049 137 -106 44 -133 71 -146
140 -18 96 20 895 45 966 17 45 48 66 82 53 30 -11 43 -39 43 -92 0 -58 26
-205 51 -289 91 -308 337 -510 711 -583 116 -23 314 -30 422 -16 444 60 724
377 702 797 -14 290 -144 483 -472 705 -40 27 -189 117 -331 200 -403 237
-576 361 -748 534 -234 237 -348 479 -376 797 -24 285 46 537 211 756 222 295
629 498 1105 552 114 13 546 4 700 -15z m-2652 -80 c28 -12 33 -53 9 -77 -16
-17 -40 -22 -119 -29 -212 -18 -300 -54 -341 -142 -47 -99 -47 -110 -47 -1557
1 -751 3 -1543 5 -1760 6 -554 -23 -801 -131 -1106 -133 -377 -486 -764 -994
-1089 -163 -105 -448 -244 -514 -252 -58 -7 -91 12 -91 52 0 29 19 45 120 100
108 59 165 102 275 206 285 271 414 571 465 1079 26 263 31 717 28 2420 -4
1898 -2 1814 -56 1902 -52 84 -188 135 -379 145 -154 7 -186 19 -181 66 2 20
11 35 25 42 25 13 1897 13 1926 0z"/>
</g>
</svg>
