<?xml version="1.0" standalone="no"?>
<!DOCTYPE svg PUBLIC "-//W3C//DTD SVG 20010904//EN"
 "http://www.w3.org/TR/2001/REC-SVG-20010904/DTD/svg10.dtd">
<svg version="1.0" xmlns="http://www.w3.org/2000/svg"
 width="512.000000pt" height="512.000000pt" viewBox="0 0 512.000000 512.000000"
 preserveAspectRatio="xMidYMid meet">
<metadata>
Created by potrace 1.11, written by Peter Selinger 2001-2013
</metadata>
<g transform="translate(0.000000,512.000000) scale(0.100000,-0.100000)"
fill="#000000" stroke="none">
<path d="M150 2560 l0 -2410 2410 0 2410 0 0 2410 0 2410 -2410 0 -2410 0 0
-2410z m3559 940 c361 -47 570 -231 616 -542 l7 -48 -33 0 c-19 0 -135 -7
-259 -15 -326 -21 -292 -26 -312 43 -38 129 -113 184 -259 190 -112 5 -158 -8
-203 -58 -29 -32 -36 -48 -36 -81 0 -88 52 -119 292 -174 417 -95 591 -167
722 -299 234 -235 193 -652 -89 -886 -27 -23 -86 -59 -130 -80 -163 -79 -324
-106 -594 -97 -252 8 -410 44 -542 123 -95 57 -194 177 -248 298 -27 63 -61
194 -61 238 l0 34 208 13 c114 6 246 15 293 18 l85 6 13 -59 c27 -122 88 -205
180 -248 39 -18 64 -21 161 -21 104 0 119 2 159 25 166 94 142 280 -46 355
-37 14 -130 42 -208 60 -277 66 -443 131 -562 219 -324 238 -267 712 109 902
62 31 205 72 293 83 97 12 354 12 444 1z m-1442 -712 c-4 -751 -6 -775 -62
-924 -53 -140 -168 -261 -320 -334 -118 -56 -188 -71 -365 -77 -410 -13 -644
96 -776 362 -46 93 -88 256 -82 319 l3 30 280 38 c154 20 285 37 291 38 7 0
14 -28 18 -67 12 -113 26 -152 70 -199 32 -33 51 -44 87 -49 101 -15 182 36
215 136 17 49 18 111 22 737 l3 682 310 0 310 0 -4 -692z"/>
</g>
</svg>
