<?xml version="1.0" standalone="no"?>
<!DOCTYPE svg PUBLIC "-//W3C//DTD SVG 20010904//EN"
 "http://www.w3.org/TR/2001/REC-SVG-20010904/DTD/svg10.dtd">
<svg version="1.0" xmlns="http://www.w3.org/2000/svg"
 width="512.000000pt" height="512.000000pt" viewBox="0 0 512.000000 512.000000"
 preserveAspectRatio="xMidYMid meet">
<metadata>
Created by potrace 1.11, written by Peter Selinger 2001-2013
</metadata>
<g transform="translate(0.000000,512.000000) scale(0.100000,-0.100000)"
fill="#000000" stroke="none">
<path d="M0 2560 l0 -2560 2560 0 2560 0 0 2560 0 2560 -2560 0 -2560 0 0
-2560z m3775 1055 c182 -29 295 -84 410 -200 95 -94 145 -181 175 -306 28
-120 28 -126 -17 -133 -21 -3 -117 -8 -214 -12 l-176 -6 -7 44 c-15 102 -87
197 -178 238 -73 32 -191 45 -292 32 -113 -15 -177 -47 -217 -110 -28 -43 -30
-53 -27 -119 3 -62 7 -77 33 -108 40 -50 144 -112 322 -191 316 -142 451 -219
524 -302 120 -136 158 -343 98 -539 -49 -159 -169 -304 -331 -396 -69 -40
-211 -84 -315 -98 -114 -15 -350 -7 -448 15 -361 79 -553 287 -572 617 l-6 96
79 6 c44 4 138 9 211 13 l132 6 5 -33 c26 -182 47 -235 109 -280 69 -50 164
-73 302 -74 198 0 312 39 379 133 41 58 49 157 17 219 -37 73 -97 110 -406
248 -325 145 -440 230 -510 376 -45 96 -59 171 -52 289 7 108 22 164 69 253
88 165 262 283 475 321 104 19 316 19 428 1z m-1295 -29 c0 -28 -300 -1434
-325 -1522 -123 -438 -279 -607 -606 -655 -102 -15 -324 -6 -404 15 -188 51
-325 187 -365 361 -11 47 -18 251 -9 259 4 4 370 46 397 46 9 0 12 -24 12 -88
0 -116 23 -165 95 -202 43 -21 62 -25 140 -25 75 1 99 5 147 27 92 42 119 99
182 370 34 149 296 1397 296 1411 0 4 99 7 220 7 121 0 220 -2 220 -4z"/>
</g>
</svg>
